<?xml version="1.0" encoding="utf-8"?>
<!-- Generator: Adobe Illustrator 28.1.0, SVG Export Plug-In . SVG Version: 6.00 Build 0)  -->
<svg version="1.1" id="Logga" xmlns="http://www.w3.org/2000/svg" xmlns:xlink="http://www.w3.org/1999/xlink" x="0px" y="0px"
	 viewBox="0 0 960 560" enable-background="new 0 0 960 560" xml:space="preserve">
<path fill="#2A2A2A" d="M167.8,471.9c2.9,17.6,9.8,28.7,29.1,28.7c18.8,0,32-8.2,32-38.1V302.2h59.4v170.9
	c0,51.6-40.6,83.2-88.5,83.2c-51.2,0-90.2-30.7-90.2-82.4L167.8,471.9z"/>
<path fill="#2A2A2A" d="M199.7,544.8c39.7,0,73.3-27,73.3-71.7V313.7H244v148.7c0,28.3-12.7,49.6-47.1,49.6
	c-19.7,0-32.4-7-40.2-28.3l-31.6,1.2C129.7,522.7,160.4,544.8,199.7,544.8z"/>
<polygon fill="#2A2A2A" points="129.7,489.9 154.2,489.9 155.1,492 130.5,492 "/>
<polygon fill="#2A2A2A" points="132.1,498.1 158.3,498.1 160,500.2 132.5,500.2 "/>
<polygon fill="#2A2A2A" points="135.4,506.3 165.3,506.3 164.9,505.9 168.2,508.4 136.6,508.4 "/>
<polygon fill="#2A2A2A" points="140.7,514.5 180.1,514.5 196.9,515.7 214.1,514.5 255.5,514.5 253.8,516.6 142,516.6 "/>
<polygon fill="#2A2A2A" points="248.1,522.7 245.6,524.7 150.6,524.7 148.1,522.7 "/>
<polygon fill="#2A2A2A" points="236.6,530.9 232.9,532.9 164.1,532.9 160,530.9 "/>
<polygon fill="#2A2A2A" points="214.1,539.1 199.7,541.1 182.5,539.1 "/>
<polygon fill="#2A2A2A" points="230.9,506.3 260.8,506.3 259.6,508.4 228.4,508.4 "/>
<polygon fill="#2A2A2A" points="238.7,498.1 264.4,498.1 263.7,500.2 236.6,500.2 "/>
<polygon fill="#2A2A2A" points="242.8,489.9 266.9,489.9 266.1,492 241.9,492 "/>
<polygon fill="#2A2A2A" points="245.6,481.7 268.6,481.7 267.8,483.8 245.2,483.8 "/>
<polygon fill="#2A2A2A" points="247.3,473.5 269,473.5 269,475.6 246.9,475.6 "/>
<polygon fill="#2A2A2A" points="248.1,465.3 269,465.3 269,467.4 247.7,467.4 "/>
<rect x="248.1" y="399.8" fill="#2A2A2A" width="20.9" height="2"/>
<rect x="248.1" y="408" fill="#2A2A2A" width="20.9" height="2"/>
<rect x="248.1" y="416.2" fill="#2A2A2A" width="20.9" height="2"/>
<rect x="248.1" y="424.4" fill="#2A2A2A" width="20.9" height="2"/>
<rect x="248.1" y="432.6" fill="#2A2A2A" width="20.9" height="2"/>
<rect x="248.1" y="440.7" fill="#2A2A2A" width="20.9" height="2"/>
<rect x="248.1" y="448.9" fill="#2A2A2A" width="20.9" height="2"/>
<rect x="248.1" y="457.1" fill="#2A2A2A" width="20.9" height="2"/>
<polygon fill="#2A2A2A" points="602.5,302.2 666,302.2 761.5,448.1 761.5,302.2 821.3,302.2 821.3,548.1 758.6,548.1 662.7,402.2 
	662.7,548.1 602.5,548.1 "/>
<polygon fill="#2A2A2A" points="647.6,536.6 647.6,363.3 653.7,363.3 768,536.6 806.2,536.6 806.2,313.7 776.6,313.7 776.6,485 
	769.3,485 656.6,313.7 617.7,313.7 617.7,536.6 "/>
<polygon points="628.4,318.2 654.1,318.2 655.8,320.3 629.6,320.3 "/>
<polygon points="634.1,326.4 659.5,326.4 661.1,328.5 635.3,328.5 "/>
<polygon points="639.4,334.6 664.8,334.6 666.5,336.7 640.6,336.7 "/>
<polygon points="645.1,342.8 670.2,342.8 671.7,344.9 646.3,344.9 "/>
<polygon points="650.5,351 675.4,351 677.1,353.1 651.7,353.1 "/>
<polygon points="656.2,359.2 680.8,359.2 682.4,361.2 657.4,361.2 "/>
<polygon points="661.5,367.4 686.5,367.4 688.1,369.4 662.7,369.4 "/>
<polygon fill="#2A2A2A" points="666.8,375.6 691.8,375.6 693.5,377.6 668.1,377.6 "/>
<polygon fill="#2A2A2A" points="672.6,383.8 697.2,383.8 698.8,385.8 673.8,385.8 "/>
<polygon fill="#2A2A2A" points="677.9,392 702.5,392 704.1,394 679.1,394 "/>
<polygon fill="#2A2A2A" points="683.2,400.2 707.8,400.2 709.4,402.2 684.4,402.2 "/>
<polygon fill="#2A2A2A" points="688.5,408.4 713.5,408.4 715.2,410.4 689.8,410.4 "/>
<polygon fill="#2A2A2A" points="693.9,416.6 718.9,416.6 720.5,418.6 695.1,418.6 "/>
<polygon points="699.2,424.8 724.2,424.8 725.8,426.8 700.4,426.8 "/>
<polygon points="704.9,433 729.5,433 731.2,435 706.2,435 "/>
<polygon points="710.3,441.2 734.9,441.2 736.5,443.2 711.5,443.2 "/>
<polygon points="715.6,449.4 740.2,449.4 741.8,451.4 716.8,451.4 "/>
<polygon points="720.9,457.5 745.9,457.5 747.6,459.6 722.1,459.6 "/>
<polygon points="751.2,465.7 752.9,467.8 727.5,467.8 726.2,465.7 "/>
<polygon points="756.6,473.9 758.2,476 733.2,476 732,473.9 "/>
<polygon points="761.9,482.1 763.5,484.2 738.5,484.2 737.3,482.1 "/>
<polygon points="768,490.3 769.7,492.4 743.9,492.4 742.6,490.3 "/>
<polygon points="773.8,498.5 775.8,500.6 749.2,500.6 748,498.5 "/>
<polygon points="779.9,506.7 782,508.8 754.5,508.8 753.3,506.7 "/>
<polygon points="786.1,514.9 787.7,517 759.8,517 758.6,514.9 "/>
<polygon points="792.2,523.1 794.3,525.2 765.6,525.2 764.4,523.1 "/>
<polygon points="798,530.5 800,532.5 770.1,532.5 768.9,530.5 "/>
<polygon fill="#2A2A2A" points="329.7,302.2 385.9,302.2 448.6,435 511.7,302.2 567,302.2 567,548.1 507.2,548.1 507.2,438.7 
	453.5,556.3 443.6,556.3 390,437.9 390,548.1 329.7,548.1 "/>
<polygon fill="#2A2A2A" points="374.8,536.6 374.8,387.1 381.8,387.1 448.6,531.3 516.6,387.1 522.3,387.1 522.3,536.6 551.8,536.6 
	551.8,313.7 521.9,313.7 454.3,457.5 442.8,457.5 375.6,313.7 344.9,313.7 344.9,536.6 "/>
<polygon points="351,318.2 372.7,318.2 373.6,320.3 352.3,320.3 "/>
<polygon fill="#2A2A2A" points="355.1,326.4 376.4,326.4 377.3,328.5 356.4,328.5 "/>
<polygon fill="#2A2A2A" points="359.2,334.6 380.5,334.6 381.4,336.7 360.5,336.7 "/>
<polygon fill="#2A2A2A" points="363.3,342.8 384.2,342.8 385,344.9 364.6,344.9 "/>
<polygon fill="#2A2A2A" points="367.4,351 388.3,351 389.1,353.1 368.6,353.1 "/>
<polygon fill="#2A2A2A" points="371.9,359.2 392,359.2 392.8,361.2 373.2,361.2 "/>
<polygon fill="#2A2A2A" points="376,367.4 395.7,367.4 396.5,369.4 377.3,369.4 "/>
<polygon fill="#2A2A2A" points="380.1,375.6 399.4,375.6 400.2,377.6 381.4,377.6 "/>
<polygon fill="#2A2A2A" points="384.2,383.8 403.1,383.8 404.3,385.8 385.5,385.8 "/>
<polygon fill="#2A2A2A" points="388.3,392 407.2,392 408,394 389.5,394 "/>
<polygon fill="#2A2A2A" points="392.4,400.2 410.9,400.2 412.1,402.2 393.6,402.2 "/>
<polygon fill="#2A2A2A" points="396.1,408.4 415,408.4 415.8,410.4 397.3,410.4 "/>
<polygon fill="#2A2A2A" points="399.8,416.6 418.6,416.6 419.5,418.6 401,418.6 "/>
<polygon fill="#2A2A2A" points="403.5,424.8 422.3,424.8 423.1,426.8 404.7,426.8 "/>
<polygon fill="#2A2A2A" points="407.6,433 426.4,433 427.2,435 408.8,435 "/>
<polygon fill="#2A2A2A" points="411.3,441.2 430.1,441.2 430.9,443.2 412.5,443.2 "/>
<polygon fill="#2A2A2A" points="415,449.4 434.2,449.4 435,451.4 416.2,451.4 "/>
<polygon fill="#2A2A2A" points="419.1,457.5 437.5,457.5 438.7,459.6 420.3,459.6 "/>
<polygon fill="#2A2A2A" points="422.7,465.7 441.6,465.7 442.8,467.8 424,467.8 "/>
<polygon fill="#2A2A2A" points="426.4,473.9 445.7,473.9 446.9,476 427.7,476 "/>
<polygon fill="#2A2A2A" points="449.8,482.1 451,484.2 431.3,484.2 430.1,482.1 "/>
<polygon fill="#2A2A2A" points="453.9,490.3 455.1,492.4 435,492.4 433.8,490.3 "/>
<polygon fill="#2A2A2A" points="457.6,498.5 458.8,499.8 458,501 439.1,501 437.9,498.5 "/>
<polygon fill="#2A2A2A" points="455.5,506.7 454.3,508.8 442.8,508.8 441.6,506.7 "/>
<polygon fill="#2A2A2A" points="451.8,514.9 450.6,517 446.5,517 445.3,514.9 "/>
<polygon fill="#2A2A2A" points="450.2,522.3 448.6,524.3 446.9,522.3 "/>
<rect x="526.4" y="318.2" width="21.3" height="2"/>
<rect x="526.4" y="326.4" fill="#2A2A2A" width="21.3" height="2"/>
<rect x="526.4" y="334.6" fill="#2A2A2A" width="21.3" height="2"/>
<rect x="526.4" y="342.8" fill="#2A2A2A" width="21.3" height="2"/>
<rect x="526.4" y="351" fill="#2A2A2A" width="21.3" height="2"/>
<rect x="526.4" y="359.2" fill="#2A2A2A" width="21.3" height="2"/>
<rect x="526.4" y="367.4" fill="#2A2A2A" width="21.3" height="2"/>
<rect x="526.4" y="375.6" fill="#2A2A2A" width="21.3" height="2"/>
<rect x="526.4" y="383.8" fill="#2A2A2A" width="21.3" height="2"/>
<rect x="526.4" y="392" fill="#2A2A2A" width="21.3" height="2"/>
<rect x="526.4" y="400.2" fill="#2A2A2A" width="21.3" height="2"/>
<rect x="526.4" y="408.4" fill="#2A2A2A" width="21.3" height="2"/>
<rect x="526.4" y="416.6" fill="#2A2A2A" width="21.3" height="2"/>
<rect x="526.4" y="424.8" fill="#2A2A2A" width="21.3" height="2"/>
<rect x="526.4" y="433" fill="#2A2A2A" width="21.3" height="2"/>
<rect x="526.4" y="441.2" fill="#2A2A2A" width="21.3" height="2"/>
<rect x="526.4" y="449.4" fill="#2A2A2A" width="21.3" height="2"/>
<rect x="526.4" y="457.5" fill="#2A2A2A" width="21.3" height="2"/>
<rect x="526.4" y="465.7" fill="#2A2A2A" width="21.3" height="2"/>
<rect x="526.4" y="473.9" fill="#2A2A2A" width="21.3" height="2"/>
<rect x="526.4" y="482.1" fill="#2A2A2A" width="21.3" height="2"/>
<rect x="526.4" y="490.3" fill="#2A2A2A" width="21.3" height="2"/>
<rect x="526.4" y="498.5" fill="#2A2A2A" width="21.3" height="2"/>
<rect x="526.4" y="506.7" fill="#2A2A2A" width="21.3" height="2"/>
<rect x="526.4" y="514.9" fill="#2A2A2A" width="21.3" height="2"/>
<rect x="526.4" y="523.1" fill="#2A2A2A" width="21.3" height="2"/>
<rect x="526.4" y="531.3" fill="#2A2A2A" width="21.3" height="1.6"/>
<path fill="none" stroke="#000000" stroke-miterlimit="10" d="M344.9,563.8"/>
<g>
	
		<linearGradient id="SVGID_1_" gradientUnits="userSpaceOnUse" x1="288.197" y1="489.4859" x2="448.3277" y2="489.4859" gradientTransform="matrix(1 0 0 -1 0 560)">
		<stop  offset="8.040000e-02" style="stop-color:#AC8445"/>
		<stop  offset="0.1498" style="stop-color:#AF8949"/>
		<stop  offset="0.2286" style="stop-color:#B99654"/>
		<stop  offset="0.2889" style="stop-color:#C4A661"/>
		<stop  offset="0.3468" style="stop-color:#C9AE67"/>
		<stop  offset="0.435" style="stop-color:#D8C379"/>
		<stop  offset="0.5423" style="stop-color:#F0E595"/>
		<stop  offset="0.5578" style="stop-color:#F4EB9A"/>
		<stop  offset="0.7688" style="stop-color:#A98346"/>
	</linearGradient>
	<polygon fill="url(#SVGID_1_)" points="306.1,136.3 448.3,19.4 430.5,4.7 288.2,121.6 	"/>
	
		<linearGradient id="SVGID_00000153703815413821936380000011940262465611787409_" gradientUnits="userSpaceOnUse" x1="288.197" y1="387.3154" x2="448.3277" y2="387.3154" gradientTransform="matrix(1 0 0 -1 0 560)">
		<stop  offset="8.040000e-02" style="stop-color:#AC8445"/>
		<stop  offset="0.1498" style="stop-color:#AF8949"/>
		<stop  offset="0.2286" style="stop-color:#B99654"/>
		<stop  offset="0.2889" style="stop-color:#C4A661"/>
		<stop  offset="0.3468" style="stop-color:#C9AE67"/>
		<stop  offset="0.435" style="stop-color:#D8C379"/>
		<stop  offset="0.5423" style="stop-color:#F0E595"/>
		<stop  offset="0.5578" style="stop-color:#F4EB9A"/>
		<stop  offset="0.7688" style="stop-color:#A98346"/>
	</linearGradient>
	<polygon fill="url(#SVGID_00000153703815413821936380000011940262465611787409_)" points="448.3,223.7 306.1,106.9 288.2,121.6 
		430.5,238.5 	"/>
</g>
<g>
	
		<linearGradient id="SVGID_00000119821961664605389430000007492057927188586896_" gradientUnits="userSpaceOnUse" x1="250.4032" y1="492.8495" x2="410.2849" y2="492.8495" gradientTransform="matrix(-0.9999 -1.170000e-02 1.170000e-02 -0.9999 938.4442 566.7016)">
		<stop  offset="8.040000e-02" style="stop-color:#AC8445"/>
		<stop  offset="0.1498" style="stop-color:#AF8949"/>
		<stop  offset="0.2286" style="stop-color:#B99654"/>
		<stop  offset="0.2889" style="stop-color:#C4A661"/>
		<stop  offset="0.3468" style="stop-color:#C9AE67"/>
		<stop  offset="0.435" style="stop-color:#D8C379"/>
		<stop  offset="0.5423" style="stop-color:#F0E595"/>
		<stop  offset="0.5578" style="stop-color:#F4EB9A"/>
		<stop  offset="0.7688" style="stop-color:#A98346"/>
	</linearGradient>
	<polygon fill="url(#SVGID_00000119821961664605389430000007492057927188586896_)" points="675.1,136.4 534.6,18.2 552.6,3.7 
		693.2,121.9 	"/>
	
		<linearGradient id="SVGID_00000160874248799365940040000009308821132150049924_" gradientUnits="userSpaceOnUse" x1="250.4032" y1="390.6888" x2="410.8078" y2="390.6888" gradientTransform="matrix(-0.9999 -1.170000e-02 1.170000e-02 -0.9999 938.4442 566.7016)">
		<stop  offset="8.040000e-02" style="stop-color:#AC8445"/>
		<stop  offset="0.1498" style="stop-color:#AF8949"/>
		<stop  offset="0.2286" style="stop-color:#B99654"/>
		<stop  offset="0.2889" style="stop-color:#C4A661"/>
		<stop  offset="0.3468" style="stop-color:#C9AE67"/>
		<stop  offset="0.435" style="stop-color:#D8C379"/>
		<stop  offset="0.5423" style="stop-color:#F0E595"/>
		<stop  offset="0.5578" style="stop-color:#F4EB9A"/>
		<stop  offset="0.7688" style="stop-color:#A98346"/>
	</linearGradient>
	<polygon fill="url(#SVGID_00000160874248799365940040000009308821132150049924_)" points="531.6,222.5 675.6,107 693.2,121.9 
		549.3,237.4 	"/>
</g>
<linearGradient id="SVGID_00000042719355048426017430000016789645945490235818_" gradientUnits="userSpaceOnUse" x1="109.7629" y1="130.7282" x2="288.4246" y2="130.7282" gradientTransform="matrix(1 0 0 -1 0 560)">
	<stop  offset="0" style="stop-color:#AC8445"/>
	<stop  offset="8.280000e-02" style="stop-color:#AF8949"/>
	<stop  offset="0.1768" style="stop-color:#B99654"/>
	<stop  offset="0.2487" style="stop-color:#C4A661"/>
	<stop  offset="0.2947" style="stop-color:#C9AE67"/>
	<stop  offset="0.3648" style="stop-color:#D8C379"/>
	<stop  offset="0.45" style="stop-color:#F0E595"/>
	<stop  offset="0.4623" style="stop-color:#F4EB9A"/>
	<stop  offset="0.7136" style="stop-color:#A98346"/>
</linearGradient>
<path fill="url(#SVGID_00000042719355048426017430000016789645945490235818_)" d="M168,471.9c2.9,17.6,9.8,28.7,29.1,28.7
	c18.8,0,32-8.2,32-38.1V302.2h59.4v170.9c0,51.6-40.6,83.2-88.5,83.2c-51.2,0-90.2-30.7-90.2-82.4L168,471.9z M199.9,544.8
	c39.7,0,73.3-27,73.3-71.7V313.7h-29.1v148.7c0,28.3-12.7,49.6-47.1,49.6c-19.7,0-32.4-7-40.2-28.3l-31.6,1.2
	C129.8,522.7,160.6,544.8,199.9,544.8z M129.8,489.9h24.6l0.8,2h-24.6L129.8,489.9z M132.3,498.1h26.2l1.6,2h-27.5L132.3,498.1z
	 M135.6,506.3h29.9l-0.4-0.4l3.3,2.5h-31.6L135.6,506.3z M140.9,514.5h39.3l16.8,1.2l17.2-1.2h41.4l-1.6,2H142.1L140.9,514.5z
	 M248.3,522.7l-2.5,2h-95.1l-2.5-2H248.3z M236.8,530.9l-3.7,2h-68.8l-4.1-2H236.8z M214.3,539.1l-14.3,2l-17.2-2H214.3z
	 M231.1,506.3H261l-1.2,2h-31.1L231.1,506.3z M238.8,498.1h25.8l-0.8,2h-27L238.8,498.1z M242.9,489.9h24.2l-0.8,2h-24.2
	L242.9,489.9z M245.8,481.7h22.9l-0.8,2h-22.5L245.8,481.7z M247.4,473.5h21.7v2H247L247.4,473.5z M248.3,465.3h20.9v2h-21.3
	L248.3,465.3z M248.3,399.8h20.9v2h-20.9V399.8z M248.3,408h20.9v2h-20.9V408z M248.3,416.2h20.9v2h-20.9V416.2z M248.3,424.4h20.9
	v2h-20.9V424.4z M248.3,432.6h20.9v2h-20.9V432.6z M248.3,440.7h20.9v2h-20.9V440.7z M248.3,448.9h20.9v2h-20.9V448.9z M248.3,457.1
	h20.9v2h-20.9V457.1z"/>
<linearGradient id="SVGID_00000006689927015109251770000018419777252721097869_" gradientUnits="userSpaceOnUse" x1="602.0842" y1="135.0536" x2="820.9493" y2="135.0536" gradientTransform="matrix(1 0 0 -1 0 560)">
	<stop  offset="0" style="stop-color:#AC8445"/>
	<stop  offset="8.280000e-02" style="stop-color:#AF8949"/>
	<stop  offset="0.1768" style="stop-color:#B99654"/>
	<stop  offset="0.2487" style="stop-color:#C4A661"/>
	<stop  offset="0.2947" style="stop-color:#C9AE67"/>
	<stop  offset="0.3648" style="stop-color:#D8C379"/>
	<stop  offset="0.45" style="stop-color:#F0E595"/>
	<stop  offset="0.4623" style="stop-color:#F4EB9A"/>
	<stop  offset="1" style="stop-color:#A98346"/>
</linearGradient>
<path fill="url(#SVGID_00000006689927015109251770000018419777252721097869_)" d="M602.1,302h63.5l95.5,145.9V302h59.8v245.9h-62.7
	L662.3,402v145.9h-60.2L602.1,302L602.1,302z M647.2,536.4V363.1h6.1l114.3,173.3h38.1V313.5h-29.5v171.3h-7.4L656.2,313.5h-38.9
	v222.9H647.2z M627.9,318h25.8l1.6,2h-26.2L627.9,318z M633.7,326.2h25.4l1.6,2h-25.8L633.7,326.2z M639,334.4h25.4l1.6,2h-25.8
	L639,334.4z M644.7,342.6h25l1.6,2h-25.4L644.7,342.6z M650.1,350.8h25l1.6,2h-25.4L650.1,350.8z M655.8,359h24.6l1.6,2h-25
	L655.8,359z M661.1,367.2h25l1.6,2h-25.4L661.1,367.2z M666.4,375.4h25l1.6,2h-25.4L666.4,375.4z M672.2,383.6h24.6l1.6,2h-25
	L672.2,383.6z M677.5,391.8h24.6l1.6,2h-25L677.5,391.8z M682.8,400h24.6l1.6,2h-25L682.8,400z M688.1,408.1h25l1.6,2h-25.4
	L688.1,408.1z M693.5,416.3h25l1.6,2h-25.4L693.5,416.3z M698.8,424.5h25l1.6,2H700L698.8,424.5z M704.5,432.7h24.6l1.6,2h-25
	L704.5,432.7z M709.9,440.9h24.6l1.6,2h-25L709.9,440.9z M715.2,449.1h24.6l1.6,2h-25L715.2,449.1z M720.5,457.3h25l1.6,2h-25.4
	L720.5,457.3z M750.8,465.5l1.6,2h-25.4l-1.2-2H750.8z M756.2,473.7l1.6,2h-25l-1.2-2H756.2z M761.5,481.9l1.6,2h-25l-1.2-2H761.5z
	 M767.6,490.1l1.6,2h-25.8l-1.2-2H767.6z M773.4,498.3l2,2h-26.6l-1.2-2H773.4z M779.5,506.5l2,2h-27.5l-1.2-2H779.5z M785.7,514.7
	l1.6,2h-27.9l-1.2-2H785.7z M791.8,522.9l2,2h-28.7l-1.2-2H791.8z M797.5,530.3l2,2h-29.9l-1.2-2H797.5z"/>
<linearGradient id="SVGID_00000127022842309017570560000002341909605539572620_" gradientUnits="userSpaceOnUse" x1="329.7204" y1="130.7282" x2="566.9801" y2="130.7282" gradientTransform="matrix(1 0 0 -1 0 560)">
	<stop  offset="0" style="stop-color:#AC8445"/>
	<stop  offset="1" style="stop-color:#F4EB9A"/>
</linearGradient>
<path fill="url(#SVGID_00000127022842309017570560000002341909605539572620_)" d="M329.7,302.2h56.1L448.6,435l63.1-132.8H567v245.9
	h-59.8V438.7l-53.7,117.6h-9.8L390,437.9v110.2h-60.2L329.7,302.2L329.7,302.2z M374.8,536.6V387.1h7l66.8,144.2l68-144.2h5.7v149.6
	h29.5V313.7h-29.9l-67.6,143.8h-11.5l-67.2-143.8h-30.7v222.9H374.8z M351,318.2h21.7l0.8,2h-21.3L351,318.2z M355.1,326.4h21.3
	l0.8,2h-20.9L355.1,326.4z M359.2,334.6h21.3l0.8,2h-20.9L359.2,334.6z M363.3,342.8h20.9l0.8,2h-20.5L363.3,342.8z M367.4,351h20.9
	l0.8,2h-20.5L367.4,351z M371.9,359.2H392l0.8,2h-19.7L371.9,359.2z M376,367.4h19.7l0.8,2h-19.3L376,367.4z M380.1,375.6h19.3
	l0.8,2h-18.8L380.1,375.6z M384.2,383.8h18.8l1.2,2h-18.8L384.2,383.8z M388.3,392h18.8l0.8,2h-18.4L388.3,392z M392.4,400.2h18.4
	l1.2,2h-18.4L392.4,400.2z M396.1,408.4H415l0.8,2h-18.4L396.1,408.4z M399.8,416.6h18.8l0.8,2H401L399.8,416.6z M403.5,424.8h18.8
	l0.8,2h-18.4L403.5,424.8z M407.6,433h18.8l0.8,2h-18.4L407.6,433z M411.3,441.2h18.8l0.8,2h-18.4L411.3,441.2z M415,449.4h19.3
	l0.8,2h-18.8L415,449.4z M419.1,457.5h18.4l1.2,2h-18.4L419.1,457.5z M422.7,465.7h18.8l1.2,2H424L422.7,465.7z M426.4,473.9h19.3
	l1.2,2h-19.3L426.4,473.9z M449.8,482.1l1.2,2h-19.7l-1.2-2H449.8z M453.9,490.3l1.2,2H435l-1.2-2H453.9z M457.6,498.5l1.2,1.2
	L458,501h-18.8l-1.2-2.5L457.6,498.5L457.6,498.5z M455.5,506.7l-1.2,2h-11.5l-1.2-2H455.5z M451.8,514.9l-1.2,2h-4.1l-1.2-2H451.8z
	 M450.2,522.3l-1.6,2l-1.6-2H450.2z M526.4,318.2h21.3v2h-21.3V318.2z M526.4,326.4h21.3v2h-21.3V326.4z M526.4,334.6h21.3v2h-21.3
	V334.6z M526.4,342.8h21.3v2h-21.3V342.8z M526.4,351h21.3v2h-21.3V351z M526.4,359.2h21.3v2h-21.3V359.2z M526.4,367.4h21.3v2
	h-21.3V367.4z M526.4,375.6h21.3v2h-21.3V375.6z M526.4,383.8h21.3v2h-21.3V383.8z M526.4,392h21.3v2h-21.3V392z M526.4,400.2h21.3
	v2h-21.3V400.2z M526.4,408.4h21.3v2h-21.3V408.4z M526.4,416.6h21.3v2h-21.3V416.6z M526.4,424.8h21.3v2h-21.3V424.8z M526.4,433
	h21.3v2h-21.3V433z M526.4,441.2h21.3v2h-21.3V441.2z M526.4,449.4h21.3v2h-21.3V449.4z M526.4,457.5h21.3v2h-21.3V457.5z
	 M526.4,465.7h21.3v2h-21.3V465.7z M526.4,473.9h21.3v2h-21.3V473.9z M526.4,482.1h21.3v2h-21.3V482.1z M526.4,490.3h21.3v2h-21.3
	V490.3z M526.4,498.5h21.3v2h-21.3V498.5z M526.4,506.7h21.3v2h-21.3V506.7z M526.4,514.9h21.3v2h-21.3V514.9z M526.4,523.1h21.3v2
	h-21.3V523.1z M526.4,531.3h21.3v1.6h-21.3V531.3z"/>
</svg>
